<?xml version="1.0" encoding="UTF-8"?>
<svg width="942px" height="250px" viewBox="0 0 942 250" version="1.1" xmlns="http://www.w3.org/2000/svg" xmlns:xlink="http://www.w3.org/1999/xlink">
    <!-- Generator: Sketch 53.1 (72631) - https://sketchapp.com -->
    <title>drone-logo-back-with-text</title>
    <desc>Created with Sketch.</desc>
    <g id="Landing" stroke="none" stroke-width="1" fill="none" fill-rule="evenodd">
        <g id="logos" transform="translate(-151.000000, -3990.000000)" fill="#1E375A" fill-rule="nonzero">
            <g id="drone-logo-back-with-text" transform="translate(151.000000, 3986.000000)">
                <g id="Group-4">
                    <path d="M327.65,77.52 L376.61,77.52 C394.063421,77.52 407.294955,81.9116227 416.305,90.695 C425.315045,99.4783772 429.82,113.559903 429.82,132.94 C429.82,151.413426 425.315045,165.041623 416.305,173.825 C407.294955,182.608377 394.063421,187 376.61,187 L327.65,187 L327.65,77.52 Z M372.53,162.52 C378.196695,162.52 382.786649,161.698342 386.3,160.055 C389.813351,158.411658 392.504991,155.465021 394.375,151.215 C396.245009,146.964979 397.18,140.873373 397.18,132.94 C397.18,124.893293 396.330009,118.631689 394.63,114.155 C392.929992,109.678311 390.295018,106.533342 386.725,104.72 C383.154982,102.906658 378.423363,102 372.53,102 L359.61,102 L359.61,162.52 L372.53,162.52 Z M460.608895,77.52 L517.558895,77.52 C530.47896,77.52 540.225529,81.0332982 546.798895,88.06 C553.372261,95.0867018 556.658895,104.54994 556.658895,116.45 C556.658895,123.70337 554.84558,130.134972 551.218895,135.745 C547.59221,141.355028 542.66226,145.689985 536.428895,148.75 C537.675568,149.770005 538.752224,150.959993 539.658895,152.32 C540.565566,153.680007 541.585556,155.66332 542.718895,158.27 L555.298895,187 L521.978895,187 L510.418895,160.65 C509.512224,158.60999 508.407235,157.165004 507.103895,156.315 C505.800555,155.464996 503.958907,155.04 501.578895,155.04 L492.568895,155.04 L492.568895,187 L460.608895,187 L460.608895,77.52 Z M509.398895,130.56 C514.045585,130.56 517.643882,129.341679 520.193895,126.905 C522.743908,124.468321 524.018895,120.983356 524.018895,116.45 C524.018895,106.816619 519.485607,102 510.418895,102 L492.568895,102 L492.568895,130.56 L509.398895,130.56 Z M637.42779,188.7 C618.954364,188.7 605.014504,184.195045 595.60779,175.185 C586.201076,166.174955 581.49779,151.980097 581.49779,132.6 C581.49779,112.653234 586.172743,98.2033781 595.52279,89.25 C604.872837,80.2966219 618.84103,75.82 637.42779,75.82 C656.01455,75.82 669.982743,80.324955 679.33279,89.335 C688.682837,98.345045 693.35779,112.766568 693.35779,132.6 C693.35779,151.866763 688.654504,166.033288 679.24779,175.1 C669.841076,184.166712 655.901216,188.7 637.42779,188.7 Z M637.42779,161.5 C645.587831,161.5 651.509438,159.205023 655.19279,154.615 C658.876142,150.024977 660.71779,142.686717 660.71779,132.6 C660.71779,121.946613 658.904475,114.353356 655.27779,109.82 C651.651105,105.286644 645.701165,103.02 637.42779,103.02 C629.154415,103.02 623.204475,105.286644 619.57779,109.82 C615.951105,114.353356 614.13779,121.946613 614.13779,132.6 C614.13779,142.686717 615.979438,150.024977 619.66279,154.615 C623.346142,159.205023 629.267749,161.5 637.42779,161.5 Z M724.146685,77.52 L751.346685,77.52 L792.656685,135.49 L792.656685,77.52 L824.616685,77.52 L824.616685,187 L797.246685,187 L756.106685,129.2 L756.106685,187 L724.146685,187 L724.146685,77.52 Z M858.80558,77.52 L941.76558,77.52 L941.76558,102 L890.76558,102 L890.76558,119.85 L935.47558,119.85 L935.47558,144.67 L890.76558,144.67 L890.76558,162.52 L941.76558,162.52 L941.76558,187 L858.80558,187 L858.80558,77.52 Z" id="DRONE"></path>
                    <g id="Group-3" transform="translate(0.000000, 4.000000)">
                        <path d="M49.764345,27.6956869 L48.703748,28.7489719 L91.9939445,71.7407137 C85.8727961,81.2318507 82.3472192,92.8882062 82.3472192,106.147066 C82.3472192,143.006814 109.594461,167.481687 144.107634,167.481687 C157.004235,167.481687 168.886289,164.064245 178.711251,157.860168 L222.222222,201.071162 C199.677599,230.642922 163.853661,249.261182 123.520829,249.261182 C55.3128986,249.261182 0,196.014643 0,126.59194 C0,85.3068411 19.561855,49.7425737 49.764345,27.6956869 Z M74.0740741,11.6258635 C90.1080149,4.14361647 108.059407,0 127.01056,0 C194.925058,0 250,53.2149002 250,122.596352 C250,141.679556 245.833514,159.539742 238.379365,175.406017 L199.398295,136.549535 C205.49311,127.064038 209.00352,115.414609 209.00352,102.163627 C209.00352,65.3257807 181.873497,40.8654508 147.5088,40.8654508 C134.66768,40.8654508 122.836743,44.2808627 113.054048,50.481253 L74.0740741,11.6258635 Z M148.148148,138.478435 C127.45098,138.478435 111.111111,123.742909 111.111111,101.550852 C111.111111,79.3587952 127.45098,64.6232694 148.148148,64.6232694 C168.845316,64.6232694 185.185185,79.3587952 185.185185,101.550852 C185.185185,123.742909 168.845316,138.478435 148.148148,138.478435 Z" id="Combined-Shape"></path>
                    </g>
                </g>
            </g>
        </g>
    </g>
</svg>