<?xml version="1.0" encoding="UTF-8"?>
<svg width="942px" height="250px" viewBox="0 0 942 250" version="1.1" xmlns="http://www.w3.org/2000/svg" xmlns:xlink="http://www.w3.org/1999/xlink">
    <!-- Generator: Sketch 53.1 (72631) - https://sketchapp.com -->
    <title>drone-logo-white-with-text</title>
    <desc>Created with Sketch.</desc>
    <g id="Landing" stroke="none" stroke-width="1" fill="none" fill-rule="evenodd">
        <g id="logos" transform="translate(-1336.000000, -3990.000000)" fill="#FFFFFF" fill-rule="nonzero">
            <g id="drone-logo-white-with-text" transform="translate(1336.000000, 3986.000000)">
                <g id="Group-4">
                    <path d="M327.65,77.52 L376.61,77.52 C394.063421,77.52 407.294955,81.9116227 416.305,90.695 C425.315045,99.4783772 429.82,113.559903 429.82,132.94 C429.82,151.413426 425.315045,165.041623 416.305,173.825 C407.294955,182.608377 394.063421,187 376.61,187 L327.65,187 L327.65,77.52 Z M372.53,162.52 C378.196695,162.52 382.786649,161.698342 386.3,160.055 C389.813351,158.411658 392.504991,155.465021 394.375,151.215 C396.245009,146.964979 397.18,140.873373 397.18,132.94 C397.18,124.893293 396.330009,118.631689 394.63,114.155 C392.929992,109.678311 390.295018,106.533342 386.725,104.72 C383.154982,102.906658 378.423363,102 372.53,102 L359.61,102 L359.61,162.52 L372.53,162.52 Z M460.6089,77.52 L517.5589,77.52 C530.478965,77.52 540.225534,81.0332982 546.7989,88.06 C553.372266,95.0867018 556.6589,104.54994 556.6589,116.45 C556.6589,123.70337 554.845585,130.134972 551.2189,135.745 C547.592215,141.355028 542.662264,145.689985 536.4289,148.75 C537.675573,149.770005 538.752229,150.959993 539.6589,152.32 C540.565571,153.680007 541.585561,155.66332 542.7189,158.27 L555.2989,187 L521.9789,187 L510.4189,160.65 C509.512229,158.60999 508.40724,157.165004 507.1039,156.315 C505.80056,155.464996 503.958912,155.04 501.5789,155.04 L492.5689,155.04 L492.5689,187 L460.6089,187 L460.6089,77.52 Z M509.3989,130.56 C514.04559,130.56 517.643887,129.341679 520.1939,126.905 C522.743913,124.468321 524.0189,120.983356 524.0189,116.45 C524.0189,106.816619 519.485612,102 510.4189,102 L492.5689,102 L492.5689,130.56 L509.3989,130.56 Z M637.4278,188.7 C618.954374,188.7 605.014514,184.195045 595.6078,175.185 C586.201086,166.174955 581.4978,151.980097 581.4978,132.6 C581.4978,112.653234 586.172753,98.2033781 595.5228,89.25 C604.872847,80.2966219 618.84104,75.82 637.4278,75.82 C656.01456,75.82 669.982753,80.324955 679.3328,89.335 C688.682847,98.345045 693.3578,112.766568 693.3578,132.6 C693.3578,151.866763 688.654514,166.033288 679.2478,175.1 C669.841086,184.166712 655.901226,188.7 637.4278,188.7 Z M637.4278,161.5 C645.587841,161.5 651.509448,159.205023 655.1928,154.615 C658.876152,150.024977 660.7178,142.686717 660.7178,132.6 C660.7178,121.946613 658.904485,114.353356 655.2778,109.82 C651.651115,105.286644 645.701175,103.02 637.4278,103.02 C629.154425,103.02 623.204485,105.286644 619.5778,109.82 C615.951115,114.353356 614.1378,121.946613 614.1378,132.6 C614.1378,142.686717 615.979448,150.024977 619.6628,154.615 C623.346152,159.205023 629.267759,161.5 637.4278,161.5 Z M724.1467,77.52 L751.3467,77.52 L792.6567,135.49 L792.6567,77.52 L824.6167,77.52 L824.6167,187 L797.2467,187 L756.1067,129.2 L756.1067,187 L724.1467,187 L724.1467,77.52 Z M858.8056,77.52 L941.7656,77.52 L941.7656,102 L890.7656,102 L890.7656,119.85 L935.4756,119.85 L935.4756,144.67 L890.7656,144.67 L890.7656,162.52 L941.7656,162.52 L941.7656,187 L858.8056,187 L858.8056,77.52 Z" id="DRONE"></path>
                    <g id="Group-3" transform="translate(0.000000, 4.000000)">
                        <path d="M49.764345,27.6956869 L48.703748,28.7489719 L91.9939445,71.7407137 C85.8727961,81.2318507 82.3472192,92.8882062 82.3472192,106.147066 C82.3472192,143.006814 109.594461,167.481687 144.107634,167.481687 C157.004235,167.481687 168.886289,164.064245 178.711251,157.860168 L222.222222,201.071162 C199.677599,230.642922 163.853661,249.261182 123.520829,249.261182 C55.3128986,249.261182 0,196.014643 0,126.59194 C0,85.3068411 19.561855,49.7425737 49.764345,27.6956869 Z M74.0740741,11.6258635 C90.1080149,4.14361647 108.059407,0 127.01056,0 C194.925058,0 250,53.2149002 250,122.596352 C250,141.679556 245.833514,159.539742 238.379365,175.406017 L199.398295,136.549535 C205.49311,127.064038 209.00352,115.414609 209.00352,102.163627 C209.00352,65.3257807 181.873497,40.8654508 147.5088,40.8654508 C134.66768,40.8654508 122.836743,44.2808627 113.054048,50.481253 L74.0740741,11.6258635 Z M148.148148,138.478435 C127.45098,138.478435 111.111111,123.742909 111.111111,101.550852 C111.111111,79.3587952 127.45098,64.6232694 148.148148,64.6232694 C168.845316,64.6232694 185.185185,79.3587952 185.185185,101.550852 C185.185185,123.742909 168.845316,138.478435 148.148148,138.478435 Z" id="Combined-Shape"></path>
                    </g>
                </g>
            </g>
        </g>
    </g>
</svg>